<svg xmlns="http://www.w3.org/2000/svg" width="409" height="415.235" viewBox="0 0 409 415.235">
  <g id="Group_3" data-name="Group 3" transform="translate(-377 -346)">
    <ellipse id="Ellipse_5" data-name="Ellipse 5" cx="118" cy="107" rx="118" ry="107" transform="translate(403 516)" fill="#fffdf0"/>
    <ellipse id="Ellipse_8" data-name="Ellipse 8" cx="118" cy="107" rx="118" ry="107" transform="translate(516 514)" fill="#fffdf0"/>
    <g id="Ellipse_15" data-name="Ellipse 15" transform="translate(621.578 756.72) rotate(-79)" fill="#716a6a" stroke="#707070" stroke-width="1">
      <ellipse cx="21.481" cy="11.83" rx="21.481" ry="11.83" stroke="none"/>
      <ellipse cx="21.481" cy="11.83" rx="20.981" ry="11.33" fill="none"/>
    </g>
    <g id="Ellipse_14" data-name="Ellipse 14" transform="translate(498.413 761.235) rotate(-104)" fill="#716a6a" stroke="#707070" stroke-width="1">
      <ellipse cx="21.481" cy="11.83" rx="21.481" ry="11.83" stroke="none"/>
      <ellipse cx="21.481" cy="11.83" rx="20.981" ry="11.33" fill="none"/>
    </g>
    <ellipse id="Ellipse_1" data-name="Ellipse 1" cx="118" cy="107" rx="118" ry="107" transform="translate(462 346)" fill="#fffdf0"/>
    <ellipse id="Ellipse_2" data-name="Ellipse 2" cx="118" cy="107" rx="118" ry="107" transform="translate(391 375)" fill="#fffdf0"/>
    <ellipse id="Ellipse_3" data-name="Ellipse 3" cx="118" cy="107" rx="118" ry="107" transform="translate(537 384)" fill="#fffdf0"/>
    <ellipse id="Ellipse_4" data-name="Ellipse 4" cx="118" cy="107" rx="118" ry="107" transform="translate(377 470)" fill="#fffdf0"/>
    <ellipse id="Ellipse_6" data-name="Ellipse 6" cx="118" cy="107" rx="118" ry="107" transform="translate(461 516)" fill="#fffdf0"/>
    <ellipse id="Ellipse_7" data-name="Ellipse 7" cx="118" cy="107" rx="118" ry="107" transform="translate(550 470)" fill="#fffdf0"/>
    <g id="Path_1" data-name="Path 1" transform="translate(511.444 496)" fill="#716a6a">
      <path d="M 66 126.5 C 57.23308181762695 126.5 49.18191528320312 124.8365478515625 42.07011413574219 121.5558319091797 C 35.33254623413086 118.4477691650391 29.48154640197754 113.9150009155273 24.67964744567871 108.0834503173828 C 20.04603004455566 102.4562835693359 16.46559715270996 95.72142028808594 14.03777980804443 88.06591796875 C 11.64079666137695 80.50761413574219 10.42541313171387 72.24244689941406 10.42541313171387 63.5 C 10.42541313171387 54.75754928588867 11.64079666137695 46.49238204956055 14.03777980804443 38.93408203125 C 16.46559715270996 31.27858352661133 20.04603004455566 24.54371643066406 24.67964744567871 18.91654968261719 C 29.48154640197754 13.08500003814697 35.33254623413086 8.552233695983887 42.07011413574219 5.444166660308838 C 49.18191528320312 2.163450002670288 57.23308181762695 0.5 66 0.5 C 74.79159545898438 0.5 83.00876617431641 2.164516687393188 90.42323303222656 5.447333335876465 C 97.49208068847656 8.577133178710938 103.704963684082 13.1138162612915 108.8892669677734 18.93136596679688 C 113.9533615112305 24.61403274536133 117.8913497924805 31.34941673278809 120.5938262939453 38.95043182373047 C 123.3098602294922 46.58958435058594 124.68701171875 54.84925079345703 124.68701171875 63.5 C 124.68701171875 72.15074920654297 123.3098602294922 80.41041564941406 120.5938262939453 88.04956817626953 C 117.8913497924805 95.65058135986328 113.9533615112305 102.3859634399414 108.8892669677734 108.0686340332031 C 103.704963684082 113.8861846923828 97.49208068847656 118.4228668212891 90.42323303222656 121.5526657104492 C 83.00876617431641 124.8354797363281 74.79159545898438 126.5 66 126.5 Z" stroke="none"/>
      <path d="M 66 1 C 57.30593109130859 1 49.32521057128906 2.647979736328125 42.27954864501953 5.898185729980469 C 35.61089324951172 8.974464416503906 29.81929779052734 13.46141815185547 25.06562805175781 19.23438262939453 C 20.4727783203125 24.81204986572266 16.92282867431641 31.49085235595703 14.51439666748047 39.08523559570312 C 12.13291168212891 46.59458160400391 10.9254150390625 54.80889892578125 10.9254150390625 63.5 C 10.9254150390625 72.19110107421875 12.13291168212891 80.40541839599609 14.51439666748047 87.91476440429688 C 16.92282867431641 95.50914764404297 20.4727783203125 102.1879501342773 25.06562805175781 107.7656173706055 C 29.81929779052734 113.5385818481445 35.61089324951172 118.0255355834961 42.27954864501953 121.1018142700195 C 49.32521057128906 124.3520202636719 57.30593109130859 126 66 126 C 74.721435546875 126 82.8704833984375 124.3498840332031 90.22079467773438 121.0954666137695 C 97.22402954101562 117.9947357177734 103.3794097900391 113.4999542236328 108.5159759521484 107.7359848022461 C 113.5369110107422 102.1017684936523 117.4419784545898 95.42195129394531 120.1227111816406 87.88206481933594 C 122.819580078125 80.29682922363281 124.18701171875 72.09352111816406 124.18701171875 63.5 C 124.18701171875 54.90648651123047 122.819580078125 46.70316314697266 120.1227111816406 39.11793518066406 C 117.4419784545898 31.57804870605469 113.5369110107422 24.89823150634766 108.5159759521484 19.26401519775391 C 103.3794097900391 13.50005340576172 97.22402954101562 9.005264282226562 90.22079467773438 5.904533386230469 C 82.8704833984375 2.650115966796875 74.721435546875 1 66 1 M 66 0 C 102.450798034668 0 125.18701171875 28.42991638183594 125.18701171875 63.5 C 125.18701171875 98.57008361816406 102.450798034668 127 66 127 C 29.54920959472656 127 9.9254150390625 98.57008361816406 9.9254150390625 63.5 C 9.9254150390625 28.42991638183594 29.54920959472656 0 66 0 Z" stroke="none" fill="#707070"/>
    </g>
    <ellipse id="Ellipse_9" data-name="Ellipse 9" cx="37" cy="24.5" rx="37" ry="24.5" transform="translate(495 489)" fill="#fffdf0"/>
    <ellipse id="Ellipse_10" data-name="Ellipse 10" cx="47.5" cy="31.5" rx="47.5" ry="31.5" transform="translate(532 468)" fill="#fffdf0"/>
    <ellipse id="Ellipse_11" data-name="Ellipse 11" cx="37" cy="24.5" rx="37" ry="24.5" transform="translate(590 491)" fill="#fffdf0"/>
    <g id="Ellipse_12" data-name="Ellipse 12" transform="translate(494.106 513.5) rotate(30)" fill="#716a6a" stroke="#707070" stroke-width="1">
      <ellipse cx="12.5" cy="9.862" rx="12.5" ry="9.862" stroke="none"/>
      <ellipse cx="12.5" cy="9.862" rx="12" ry="9.362" fill="none"/>
    </g>
    <g id="Ellipse_13" data-name="Ellipse 13" transform="translate(636.631 528.5) rotate(-30)" fill="#716a6a" stroke="#707070" stroke-width="1">
      <ellipse cx="12.5" cy="9.862" rx="12.5" ry="9.862" stroke="none"/>
      <ellipse cx="12.5" cy="9.862" rx="12" ry="9.362" fill="none"/>
    </g>
    <ellipse id="Ellipse_25" data-name="Ellipse 25" cx="47.5" cy="31.5" rx="47.5" ry="31.5" transform="translate(532 470)" fill="#fffdf0"/>
  </g>
</svg>
