<svg xmlns="http://www.w3.org/2000/svg" width="220" height="219.15" viewBox="0 0 220 219.15"><g transform="translate(-370 -346)"><ellipse cx="62.5" cy="56.5" rx="62.5" ry="56.5" transform="translate(387 436)" fill="#fff1de"/><ellipse cx="62.5" cy="56.5" rx="62.5" ry="56.5" transform="translate(447 435)" fill="#fff1de"/><g transform="translate(502.776 562.767) rotate(-79)" fill="#716a6a" stroke="#707070" stroke-width="1"><ellipse cx="11.337" cy="6.243" rx="11.337" ry="6.243" stroke="none"/><ellipse cx="11.337" cy="6.243" rx="10.837" ry="5.743" fill="none"/></g><g transform="translate(437.773 565.15) rotate(-104)" fill="#716a6a" stroke="#707070" stroke-width="1"><ellipse cx="11.337" cy="6.243" rx="11.337" ry="6.243" stroke="none"/><ellipse cx="11.337" cy="6.243" rx="10.837" ry="5.743" fill="none"/></g><ellipse cx="62" cy="56.5" rx="62" ry="56.5" transform="translate(419 346)" fill="#fff1de"/><ellipse cx="62.5" cy="56.5" rx="62.5" ry="56.5" transform="translate(381 361)" fill="#fff1de"/><ellipse cx="62.5" cy="56.5" rx="62.5" ry="56.5" transform="translate(458 366)" fill="#fff1de"/><ellipse cx="62.5" cy="56.5" rx="62.5" ry="56.5" transform="translate(370 408)" fill="#fff1de"/><ellipse cx="62.5" cy="56.5" rx="62.5" ry="56.5" transform="translate(418 436)" fill="#fff1de"/><ellipse cx="62.5" cy="56.5" rx="62.5" ry="56.5" transform="translate(465 411)" fill="#fff1de"/><g transform="translate(439.963 425.166)" fill="#716a6a"><path d="M 39.52005767822266 66.52716064453125 C 30.56219863891602 66.52716064453125 23.08421897888184 63.19586944580078 17.89456939697266 56.89342880249023 C 15.46831893920898 53.94694137573242 13.59305858612061 50.41894149780273 12.32087898254395 46.40742874145508 C 11.06314849853516 42.44147109985352 10.42541885375977 38.10335922241211 10.42541885375977 33.51358032226562 C 10.42541885375977 28.92379951477051 11.06314849853516 24.58568954467773 12.32087898254395 20.61972999572754 C 13.59305858612061 16.60822105407715 15.46831893920898 13.08022022247314 17.89456939697266 10.13372993469238 C 23.08421897888184 3.831290245056152 30.56219863891602 0.5000002980232239 39.52005767822266 0.5000002980232239 C 44.12688827514648 0.5000002980232239 48.4315299987793 1.371690273284912 52.31437683105469 3.090850353240967 C 56.0141487121582 4.728950500488281 59.26598739624023 7.103500366210938 61.97957992553711 10.14855003356934 C 67.31758880615234 16.13858985900879 70.25736236572266 24.43645095825195 70.25736236572266 33.51358032226562 C 70.25736236572266 42.5907096862793 67.31758880615234 50.88856887817383 61.97957992553711 56.87860870361328 C 59.26598739624023 59.92366027832031 56.0141487121582 62.29821014404297 52.31437683105469 63.93630981445312 C 48.4315299987793 65.65547180175781 44.12688827514648 66.52716064453125 39.52005767822266 66.52716064453125 Z" stroke="none"/><path d="M 39.52005767822266 1 C 35.00034713745117 1 30.85490036010742 1.855148315429688 27.19886016845703 3.541698455810547 C 23.74440765380859 5.135261535644531 20.74384689331055 7.460071563720703 18.28054809570312 10.45156097412109 C 15.89505767822266 13.34856033325195 14.05028533935547 16.82048034667969 12.7974853515625 20.77088165283203 C 11.55527496337891 24.68788909912109 10.9254150390625 28.97515106201172 10.9254150390625 33.51358032226562 C 10.9254150390625 38.05200958251953 11.55527496337891 42.33927154541016 12.7974853515625 46.25627899169922 C 14.05028533935547 50.20668029785156 15.89505767822266 53.6786003112793 18.28054809570312 56.57559967041016 C 20.74384689331055 59.56708908081055 23.74440765380859 61.89189910888672 27.19886016845703 63.48545837402344 C 30.85490036010742 65.17201232910156 35.00034713745117 66.02716064453125 39.52005767822266 66.02716064453125 C 44.05672836303711 66.02716064453125 48.29325866699219 65.16986846923828 52.11196136474609 63.47911071777344 C 55.74610137939453 61.87007141113281 58.94044876098633 59.53742218017578 61.60628890991211 56.54595184326172 C 66.86258697509766 50.64762115478516 69.75735473632812 42.46788787841797 69.75735473632812 33.51358032226562 C 69.75735473632812 24.55926895141602 66.86258697509766 16.37953948974609 61.60628890991211 10.48120880126953 C 58.94044876098633 7.489738464355469 55.74610137939453 5.157089233398438 52.11196136474609 3.548049926757812 C 48.29325866699219 1.857292175292969 44.05672836303711 1 39.52005767822266 1 M 39.52005767822266 0 C 58.75779724121094 0 70.75735473632812 15.00453948974609 70.75735473632812 33.51358032226562 C 70.75735473632812 52.02262115478516 58.75779724121094 67.02716064453125 39.52005767822266 67.02716064453125 C 20.28231811523438 67.02716064453125 9.9254150390625 52.02262115478516 9.9254150390625 33.51358032226562 C 9.9254150390625 15.00453948974609 20.28231811523438 0 39.52005767822266 0 Z" stroke="none" fill="#707070"/></g><ellipse cx="19.5" cy="13" rx="19.5" ry="13" transform="translate(436 421)" fill="#fff1de"/><ellipse cx="25.5" cy="17" rx="25.5" ry="17" transform="translate(455 410)" fill="#fff1de"/><ellipse cx="19.5" cy="12.5" rx="19.5" ry="12.5" transform="translate(486 423)" fill="#fff1de"/><g transform="translate(435.5 434.402) rotate(30)" fill="#716a6a" stroke="#707070" stroke-width="1"><ellipse cx="6.597" cy="5.205" rx="6.597" ry="5.205" stroke="none"/><ellipse cx="6.597" cy="5.205" rx="6.097" ry="4.705" fill="none"/></g><g transform="translate(510.721 442.319) rotate(-30)" fill="#716a6a" stroke="#707070" stroke-width="1"><ellipse cx="6.597" cy="5.205" rx="6.597" ry="5.205" stroke="none"/><ellipse cx="6.597" cy="5.205" rx="6.097" ry="4.705" fill="none"/></g><ellipse cx="25.5" cy="17" rx="25.5" ry="17" transform="translate(455 411)" fill="#fff1de"/></g></svg>